<svg xmlns="http://www.w3.org/2000/svg" xmlns:xlink="http://www.w3.org/1999/xlink" viewBox="0 0 232.74 61.94"><defs><style>.cls-1{fill:#fff;}.cls-2{fill:url(#linear-gradient);}.cls-3{fill:url(#linear-gradient-2);}</style><linearGradient id="linear-gradient" x1="182.92" y1="-5.28" x2="32.23" y2="1.56" gradientTransform="matrix(1.05, 0.02, -0.02, 0.89, 7.47, 52.29)" gradientUnits="userSpaceOnUse"><stop offset="0" stop-color="#6f2c91"></stop><stop offset="0.2" stop-color="#ed0c6e"></stop><stop offset="0.4" stop-color="#ed1846"></stop><stop offset="0.6" stop-color="#f37021"></stop><stop offset="0.8" stop-color="#ffcb05"></stop><stop offset="1" stop-color="#a6ce39"></stop></linearGradient><linearGradient id="linear-gradient-2" x1="250.95" y1="-2.82" x2="-29.26" y2="2.83" gradientTransform="matrix(1.05, 0.02, -0.02, 0.89, 7.47, 52.29)" gradientUnits="userSpaceOnUse"><stop offset="0.16" stop-color="#6f2c91"></stop><stop offset="0.29" stop-color="#ed0c6e"></stop><stop offset="0.4" stop-color="#ed1846"></stop><stop offset="0.56" stop-color="#f37021"></stop><stop offset="0.77" stop-color="#ffcb05"></stop><stop offset="1" stop-color="#a6ce39"></stop></linearGradient></defs><g id="Layer_2" data-name="Layer 2"><g id="Layer_1-2" data-name="Layer 1"><path class="cls-1" d="M128.71,35c3.32-.1,6.65-.17,10-.25a17.64,17.64,0,0,0,3-2.91l-.45-3.36c-1.68.63-2.94,1.06-3.78,1.28-2.13.58-4.4.86-6.4-.13a5.51,5.51,0,0,1-2.22-2,6,6,0,0,1-.87-3.33,5.8,5.8,0,0,1,1.17-3.71A6.93,6.93,0,0,1,132,18.44a8,8,0,0,1,3-.67c1,0,1.54.17,1.54.5a.46.46,0,0,1-.1.28,5.18,5.18,0,0,0-.39,1.58,3.87,3.87,0,0,0,.63,2,1.94,1.94,0,0,0,1.58.88,2.64,2.64,0,0,0,2.13-.92,4.09,4.09,0,0,0,.78-2.71,7.62,7.62,0,0,0-.9-3.79,6.39,6.39,0,0,0-2.31-2.46,8,8,0,0,0-7.45-.11,7.87,7.87,0,0,0-2.84,2.6,13,13,0,0,0-1.83,4.27c-.9,3.55-1.18,8.2.35,11.65A9.66,9.66,0,0,0,128.71,35Z"></path><path class="cls-1" d="M146.58,9.35l5.43.22v19l-3.32-.28.18,6.24,9.54-.14c.17-1.79.36-3.59.6-5.38l-3.84-.18q.47-9.27,1.51-19.29l5.93.19.2,6.14h2.29c0-2.42.13-4.78.29-7.1s.4-4.64.7-7L143.9,2.93l-.38,13.24,2.26-.18Z"></path><path class="cls-1" d="M172.54,27.46l-2.82-.27.05,7.15q9.82,0,19.65,0c0-.76,0-1.85-.12-3.26.06-3.11.25-6.27.58-9.5H187.2l-.58,6.4c-.66.05-1.39.09-2.2.11s-1.45.05-1.92.08q-3.41-.14-7.08-.54l.47-7.1,7.25.31.38-4.87-7.51.64.52-7.82h9.29l.06,5.6h2.69c0-.8,0-1.39-.06-1.78q.08-5.73.54-12.09a152.5,152.5,0,0,1-20.18,1.31q-.21,2.42-1,6.78h4.56Z"></path><path class="cls-1" d="M224.56,28.6a17.45,17.45,0,0,1-3.84.5,28.75,28.75,0,0,1-5.69-.74,18.46,18.46,0,0,1-4.56-1.58l-1.12,6.33a22,22,0,0,0,2.15,1.55q8,.15,16,.38c.24-.19.48-.38.71-.59a11,11,0,0,0,2.6-3.74,13,13,0,0,0,1-5.06A7.62,7.62,0,0,0,231,22a5.62,5.62,0,0,0-2-2.19,9.1,9.1,0,0,0-2.62-1.11A30.87,30.87,0,0,0,223,18.1l-4.62-.63a11.26,11.26,0,0,1-3.64-1,2.46,2.46,0,0,1-1.34-2.4,3.17,3.17,0,0,1,1.19-2.35,7.62,7.62,0,0,1,2.9-1.56,11.05,11.05,0,0,1,3.38-.55,11.41,11.41,0,0,1,3.64.61,23.93,23.93,0,0,1,3.73,1.9L228,15.78l2.75-.09a128.66,128.66,0,0,1,1.49-13.52l-2.87.09-.45,3c-1.28-1-2.3-1.67-3-2.15a11,11,0,0,0-2.45-1.23,11.42,11.42,0,0,0-3.09-.62,8.19,8.19,0,0,0-3.89.94A9.76,9.76,0,0,0,213.3,4.9a14.41,14.41,0,0,0-2.13,4.26,21.93,21.93,0,0,0-.93,5.48,8.35,8.35,0,0,0,1.39,5,7.6,7.6,0,0,0,3.53,2.7,12.76,12.76,0,0,0,4.47.79h5.43a8.27,8.27,0,0,1,2.42.29,1.28,1.28,0,0,1,.9,1.39,3.3,3.3,0,0,1-1.09,2.4A6.18,6.18,0,0,1,224.56,28.6Z"></path><path class="cls-1" d="M196.26,30l-2.55-.18-.13,4.56c3.25,0,6.51.06,9.76.11l0-4.13L199,30.21a19.63,19.63,0,0,1-.13-2.51A11.82,11.82,0,0,1,199.5,24,8.54,8.54,0,0,1,201,21.32c.57-.65,1.06-1,1.47-1a3.47,3.47,0,0,0,.68,2.27,2.32,2.32,0,0,0,1.65.91,2.6,2.6,0,0,0,2.07-1.33,7.46,7.46,0,0,0,.81-3.9,6.51,6.51,0,0,0-1.18-3.39,3,3,0,0,0-2.41-1.43,3.8,3.8,0,0,0-2.89,1.65,12.1,12.1,0,0,0-1.95,3.94,22.28,22.28,0,0,1-.39-3.18c0-.39.1-1.13.2-2.23a27,27,0,0,1-5.88.92,2.1,2.1,0,0,0-.8-.1l-.25,5.59,4.17.87Z"></path><path class="cls-1" d="M29.86,9.79a5.48,5.48,0,0,1,.44,2.48l-.18,18.2-2.81-.36-.38,7a58.12,58.12,0,0,1,8.93-.73l.07-5.7-3.51-.17.38-7.26,1-.87c.63-.55,1.13-1,1.52-1.25a6.3,6.3,0,0,1,1.25-.7,3.44,3.44,0,0,1,1.35-.28,2.68,2.68,0,0,1,2.3,1.16A5.52,5.52,0,0,1,41,24.61v.73l-.51,11.73A19.31,19.31,0,0,1,46.47,36a4.22,4.22,0,0,0-.06-.85,33.33,33.33,0,0,1,.45-4.65l-.79.18-.78.19a2.14,2.14,0,0,1-1.5-.95,6.59,6.59,0,0,1-.26-1.78c0-.86.1-2.22.24-4.1s.21-3.36.21-4.45a10.73,10.73,0,0,0-.58-3.7,5.38,5.38,0,0,0-1.64-2.45,3.73,3.73,0,0,0-2.42-.86,4.71,4.71,0,0,0-2.23.75A12.31,12.31,0,0,0,35,15.05c-.72.72-1.4,1.42-2.06,2.11L34.11.73c-1.56.55-2.89,1-4,1.25a32.56,32.56,0,0,1-3.9.7l-.38,5.51a10,10,0,0,1,2.66.41A2.41,2.41,0,0,1,29.86,9.79Z"></path><path class="cls-1" d="M3.43,32.87a10.94,10.94,0,0,0,3.5,2.93,10.46,10.46,0,0,0,4.19,1.13,3.07,3.07,0,0,1,.38,0l.39,0a11.73,11.73,0,0,0,2.86-.34,16.06,16.06,0,0,0,2.7-1c.89-.4,1.72-.82,2.5-1.26l3-1.68.93-6.37L20,27.59a24.65,24.65,0,0,1-5.91.78,18.39,18.39,0,0,1-5.11-.72A8.24,8.24,0,0,1,5,25.26a6.38,6.38,0,0,1-1.52-4.44,14.48,14.48,0,0,1,.9-4.54,12.06,12.06,0,0,1,2.12-3.6,9.34,9.34,0,0,1,3-2.33,7.83,7.83,0,0,1,3.44-.81,9.52,9.52,0,0,1,2.61.39,8.31,8.31,0,0,1,1.95.9q.87.55,2.52,1.77l-.12,4.86,2.55-.59q.42-9,1-15.92l-3.14.17-.18,3.56-.93-.91A22.08,22.08,0,0,0,17.17,2a8.45,8.45,0,0,0-1.88-1A6,6,0,0,0,13.2.62a4.73,4.73,0,0,0-.77.05,9,9,0,0,0-4.82,2A16.1,16.1,0,0,0,3.74,7.37a26.93,26.93,0,0,0-2.56,6.55,34.67,34.67,0,0,0-1,7.64A22.05,22.05,0,0,0,1,28.07,14.41,14.41,0,0,0,3.43,32.87Z"></path><path class="cls-1" d="M54.64,37.35a5.61,5.61,0,0,0,3.32-1,8.15,8.15,0,0,0,2.32-2.54,37,37,0,0,0,2-4.05l-.2,7.28,1.9-.44,2.2-.5c.66-.13,1.29-.25,1.91-.33q.14-2,.6-5.91l-.79.18a4.47,4.47,0,0,0-1.12.13,1.69,1.69,0,0,1-1.61-.94,7.59,7.59,0,0,1-.4-2.88q.06-.59.06-1.86L65,13.6l-2.42.08L62.42,16l-1.61-1.26a15.55,15.55,0,0,0-1.39-1A7,7,0,0,0,57.94,13a5.11,5.11,0,0,0-1.68-.28,5.34,5.34,0,0,0-4.16,2.08,14.07,14.07,0,0,0-2.68,5.47,27,27,0,0,0-.91,7.1A14.22,14.22,0,0,0,50,34.32,5.52,5.52,0,0,0,54.64,37.35Zm-2.8-14.93a5.86,5.86,0,0,1,1.69-2.36,3.61,3.61,0,0,1,2.35-.86,13.17,13.17,0,0,1,6.67,2.6L62,23.56a8.74,8.74,0,0,1-1.53,3.22,7.41,7.41,0,0,1-2.46,2.06,7.21,7.21,0,0,1-3,.77q-3.79,0-3.8-3.82a.11.11,0,0,0,0-.05.07.07,0,0,0-.05,0A9,9,0,0,1,51.84,22.42Z"></path><path class="cls-1" d="M97.09,36.2q4.72-.23,9.46-.42l.21-7.62-3.6-.14,2-5.19,10.05-.59,1.41,5.68-4.29-.26.47,7.87,10-.34.44-6.86-3.23-.22Q116.53,13.78,114.3,0a44.62,44.62,0,0,1-10.79,1.36l-.92,7,4.31-.09-1.42,4.08q-.84,2.43-2,5.71c-.75,2.17-1.35,3.94-1.81,5.29s-1,2.85-1.54,4.48L97,27.57c.09,1.86.13,3.29.13,4.27C97.16,32.4,97.14,34.39,97.09,36.2ZM111,7.82l3.23,10.7-7.48-.28Z"></path><path class="cls-1" d="M73.54,28.61l-2.62-.36v9.36c3.09-.19,6.19-.37,9.28-.54a72.63,72.63,0,0,1,.8-7.46L76.79,29l.54-6.92c.24.05.84.14,1.78.26a17.64,17.64,0,0,1,2.3.42,3.55,3.55,0,0,1,1.48.73A4.56,4.56,0,0,1,84,24.7a7,7,0,0,1,.7,1.46c.16.49.32,1.08.48,1.76s.32,1.42.48,2.19L87,36.68l7.38-.35c.14-2.25.37-5.1.7-7.17-.38,0-.85.1-1.42.19s-1,.14-1.4.17a5.41,5.41,0,0,1-2.16-.64A3.84,3.84,0,0,1,89,27.25c-.29-.72-.61-1.53-.94-2.42a6.32,6.32,0,0,0-1.18-2.08l-.8-.87.93-.64q7.47-4.86,7.47-13a8.3,8.3,0,0,0-.72-3.67,5.55,5.55,0,0,0-2-2.26,8.4,8.4,0,0,0-2.87-1.12A18.42,18.42,0,0,0,85.25.9a70.33,70.33,0,0,0-7.66.65l-6.23.86-1,6.23,3.7.09ZM78.32,9.1l3.52.22c5.23.6,7.87,1.93,7.91,4q0,5.19-10.28,5.19H77.53Z"></path><path class="cls-2" d="M232.31,43.05,192.39,61.76a1.87,1.87,0,0,1-.91.17C151.8,51.24,80.37,49.72.39,50.67a.35.35,0,1,1,0-.7,1729.88,1729.88,0,0,1,231.47-8.25C232.74,41.69,233.08,42.69,232.31,43.05Z"></path><path class="cls-3" d="M4.78,49.52.39,50a.35.35,0,1,0,0,.7c80-1,151.41.57,191.09,11.26a1.87,1.87,0,0,0,.91-.17l24.5-11.48A1732.61,1732.61,0,0,0,4.78,49.52Z"></path></g></g></svg>