<?xml version="1.0" encoding="UTF-8"?>
<svg width="425px" height="425px" viewBox="0 0 425 425" version="1.1" xmlns="http://www.w3.org/2000/svg" xmlns:xlink="http://www.w3.org/1999/xlink">
    <title>Logo White</title>
    <g id="Logo-White" stroke="none" stroke-width="1" fill="none" fill-rule="evenodd">
        <g id="Logo" transform="translate(10.000000, 10.000000)">
            <path d="M116.194631,137.346818 L190.004239,137.346818 L190.004239,144.106308 C190.004239,151.767063 189.340918,157.362419 188.014274,160.892375 C186.687631,164.422331 184.235351,167.764523 180.657434,170.918952 C177.079518,174.07338 168.416135,179.931605 154.667286,188.493626 L115,209.268128 L115,252 L150.687356,232.317653 C164.436205,224.356476 174.004117,218.028842 179.391093,213.334752 C184.778069,208.640662 189.72283,202.688555 194.225377,195.478432 C196.47665,209.973783 201.923928,220.864073 210.56721,228.149301 C219.210492,235.434529 230.16535,239.077143 243.431783,239.077143 C253.884124,239.077143 263.170627,236.673769 271.291292,231.86702 C279.411957,227.060272 285.060241,220.657533 288.236145,212.658803 C291.412048,204.660073 293,191.835818 293,174.186039 L293,104 L116.194631,104 L116.194631,137.346818 Z M218.932886,141.674909 L261.939597,141.674909 L261.939597,167.508663 C261.929323,179.80169 261.736774,187.203943 261.36155,189.715421 C260.436675,194.874134 258.220827,198.868554 254.714007,201.698681 C251.207188,204.528808 246.602078,205.943872 240.898679,205.943872 C235.811864,205.943872 231.572851,204.86914 228.181641,202.719676 C224.790431,200.570213 222.401169,197.596788 221.013856,193.799402 C219.626543,190.002016 218.932886,180.472728 218.932886,165.211536 L218.932886,141.674909 Z" id="R" fill="#FFFFFF" fill-rule="nonzero"></path>
            <rect id="Rectangle" fill="#FFFFFF" x="187" y="70" width="33" height="35"></rect>
            <path d="M115,268.355724 C115,279.36134 116.246241,288.152412 118.738722,294.728939 C122.115632,303.52001 126.819186,310.499182 132.849382,315.666453 C140.809242,322.511409 151.221382,327.779341 164.085802,331.470249 C174.618545,334.490083 187.161355,336 201.714229,336 C218.27717,336 232.206924,334.389422 243.503493,331.168266 C254.800062,327.94711 264.347873,323.249591 272.146928,317.075709 C279.945982,310.901826 285.373159,303.486457 288.428459,294.8296 C290.679732,288.387288 291.805369,279.025803 291.805369,266.745146 L293,183 L284.469746,212.287478 L115,212.287478 L115,268.355724 Z M144.865772,241.220245 L261.939597,241.220245 L261.938047,255.870519 C261.90498,267.549043 261.342835,275.429154 260.251612,279.510852 C258.804768,285.145818 256.031649,289.796361 251.932257,293.462483 C247.832864,297.128605 242.125867,299.980033 234.811265,302.016768 C227.496663,304.053502 217.007041,305.071869 203.342399,305.071869 C189.677758,305.071869 178.88671,304.053502 170.969256,302.016768 C163.051802,299.980033 157.3649,297.349251 153.908549,294.124422 C150.452199,290.899592 148.000601,286.843096 146.553757,281.954934 C145.428434,278.22092 144.865772,272.144663 144.865772,263.72616 L144.865772,241.220245 Z" id="D" fill="#FFFFFF" fill-rule="nonzero"></path>
            <circle id="Oval" stroke="#FFFFFF" stroke-width="20" cx="203" cy="203" r="193"></circle>
        </g>
    </g>
</svg>